<?xml version="1.0" encoding="utf-8"?>
<!-- Generator: Adobe Illustrator 28.3.0, SVG Export Plug-In . SVG Version: 6.00 Build 0)  -->
<svg version="1.1" id="Layer_1" xmlns="http://www.w3.org/2000/svg" xmlns:xlink="http://www.w3.org/1999/xlink" x="0px" y="0px"
	 viewBox="0 0 1199.7 91.1" style="enable-background:new 0 0 1199.7 91.1;" xml:space="preserve">
<path d="M56.6,69.8c-8.3-0.3-11.8,1.5-18.3-2.3c-1.9-1.2-1.7-4.2,0.4-5.2c6.2-3.6,3.2-12.9-4.1-12c-8.9,0.5-13.1-0.6-15.3,8.9
	c0.4,2.8,7.6,6.1,6,9.5C21,71.5,9.5,69.6,4.6,69.2c-1.7-0.6-6.8-1.8-3.5-5.2c2.4-0.7,5.2-0.5,6.4-2.4c5.5-6.6,10.7-31,13.6-37.7
	c1.7-4.1,4.8-10.8,9.3-19.9c0.3-0.7,1-1.4,2.1-2.1c3.8-2.5,5.9-0.4,7.4,3.7c3.7,6.6,4.9,12.3,6.6,19.7c0.8,2.4,6.1,10.9,5.9,14
	c0.3,4.3,3.5,9.6,4.8,13.6c1.7,8.3,10.2,7.2,13,13.6c0.5,1.1-0.3,3.3-1.7,3.2c0,0-11.9,0-11.9,0V69.8z M37.5,37.2
	c0.4-4.6-2.1-14.4-7.4-10.9c-1.7,3.1-7.3,10.1-3.9,13.5c1,0.8,2.1,2.2,3.5,2.2C36.2,41.8,37.3,43.3,37.5,37.2z M89.9,42.3
	c-0.5-2.9,0.9-31.5-1.3-33.3c-1.5-2.6-9.9-1.9-9.2-5.5c1.1-3.4,7.7-1.2,13-1.8c2.8,0,8.9-0.6,8.3,3.9c-0.9,4.1,0.7,8,1.1,11.8
	c0.3,2.3,1.7,3.2,4.3,2.7c8.7-2.5,19.3-3.1,24.3,6.2c9,13.7,7.8,33.2-7.1,41.4c-16.8,8.4-21.4-10-27.7-0.4c-1.1,2.8-5.2,2.3-5-0.9
	c0-0.5,0.2-2.3,0.1-2.9C90.3,60.9,90,53.8,89.9,42.3z M101.3,44.1c1.2,10.2,1,18.5,12.2,19c6.2,0.4,10.3-9.3,10.6-14.2
	c0.4-3.3-2.9-5.9-1.3-9.5c2.4-6.3-1.1-13.6-8-15.1C104.1,25.2,101,33.5,101.3,44.1z M163.8,19.3c12.8,1.7,15-2,12.7,13.1
	c0.8,7.3-3.9,30,7.7,32.7c1.4,0.3,4.2-2.3,4.9,0.6c1.2,6.3-8.9,4-12,3.4c-2.6,1.1-5,1-8.3,0.8c-5.2-0.6-5.5,0.6-11.1,0
	c-1.9-0.3-1.6-3.9-0.3-4.3c0.6-0.1,1.5-0.2,2.6-0.2c4.4,0.2,5.1-1.6,5.9-5.8c2.7-6.3,0.3-10.8,1-17.3c0.1-4.4,1.8-10.8-0.7-14.6
	c-2.4-4.2-6.5-2.6-10.4-3.7c-0.7-0.3-1.2-2.2-0.8-2.9C156.1,17.8,161.1,19.9,163.8,19.3z M176.5,5.5c0.3,5-3.1,5.1-6.1,4.9
	c-4-0.1-3.2-6.2-2.1-8.2C170.9-2,177.2,0.2,176.5,5.5z M234.3,62.5c7.1,0.3,11.1,0.6,12,0.7c8.6,0.5,13.8,11,10,18.4
	c-7.4,12.5-41.5,12.8-49.7,0.2c-5.6-6.4,2.7-11.6,1.5-19.3c-1.5-9.6,3.6-8.6,4.7-15.3c-2.5-7.2-4-17.4,2.5-22.4
	c4.6-3.4,12.6-8,18.1-4.6c2.5,1.5,4.9,2.2,7.1,2.2c4,0.5,7.1-4.1,11.2-4c4.3-0.8,6.4,8.1,1.4,8.7c-5.8,0.1-7.6,3.5-7.9,9
	c0.1,7.6-8.4,18.9-16.6,18.5c-4.8,1.1-13.6-5.2-14.9,0.2C215.5,64.9,227.5,62.5,234.3,62.5z M229.5,69.5c-4.4,1-13.2-0.9-17.6,1.1
	c-4,4.6-2,11.3,4.2,12.9c9.6,2.3,16.3,2.9,25.7,0.8c4.2-1.3,6.7,0,9.2-3.2c1.6-2.2,2-6.3,0.1-8.3C246.9,68.9,229.2,70.1,229.5,69.5z
	 M235.5,37.3c-0.2-7.7-0.9-12.2-7.9-13.4c-8.1-0.5-8,18.2-3,23.6c2.4,2.3,6.1,1.7,8.5-0.5C236.1,43.7,235,42.4,235.5,37.3z
	 M291.7,70.7c-19.9,0.8-27-19.9-7.1-27.3c6.3-1.7,10.6-2.8,13.1-3.3c5.8-1.2,20.1-8.2,6.7-13.8c-21.7-4-10.7,0.4-17.6,8.7
	c-11.3,5.1-15.9-14.8,10.4-15.1c6.9,0.4,20.7,2.7,21.2,12.1c-0.1,8.4-0.2,16.6,1.8,25.4c0.4,4.5,5.6,1.6,7.1,1.2
	c2.5,0.3,2.3,3.4,0.9,5.1c-4.2,9-12.7,4.7-19,3.4C303.3,67.6,298.3,71.7,291.7,70.7z M284.2,54.9c1,15.2,17.5,12.6,23.5,2.9
	c2.8-3.9,3.8-14.6-3.7-14.5c-2.1,0-7.2,1.5-15.2,4.5C285.4,49,283.8,51.3,284.2,54.9z M355.5,20.2c1.7,0.4,9-0.8,10.1,0.8
	c3.5,6.3-1.7,11.8-0.2,18.3c1.3,8.3-2.7,21.5,7.2,25.6c1.4,0.8,6,0.7,6.2,3.4c-1.2,6.1-14.2,1.2-17.8,1.7
	c-2.3,0.3-14.4,2.6-15.6-0.8c-1-2.9,0.9-3.4,3.3-3.4c1.1,0,6.4-1.3,6.7-3.8c0.6-4.8,0.4-8.9,0.4-13.2c-0.4-10,0.9-15.5-0.9-21.9
	c-1.2-2-5.8-1.5-8-2.1c-1.6-0.3-2-1.7-2-3.4C345.1,18.8,353.3,20.2,355.5,20.2z M367,5.8c0.9,7-8.9,7.9-11.3,2.2
	C354.3,0.8,366.1-4.2,367,5.8z M411.9,69.4c-8-1.4-11,1-18,0.6c-2.8-1.5-4.4-5,0.2-6c10.3-0.2,8.9-7.1,9-15.9
	C403,40,403,21.1,403,12.7c0.7-9.3-5.5-5.8-10.7-7.9c-1.7-5.8,4.2-3.3,8.4-3.7c6.1-0.2,15.1,0.2,13.8,7.7
	c-2.2,14.7-0.5,39.5-0.9,48.3c-0.5,6.8,4.6,6.9,9.6,7.4C428.1,70.8,416.6,69.2,411.9,69.4z M488.5,68.7c-2.1-1.2-0.9-5.9,1.8-5.7
	c9.1,1.3,6.2-22.1,6-27.1c0.4-4.7,1.3-8.3,0.9-14.1c-0.5-5.5,0.7-6.9-0.7-12.1c-2.9-8.9,0.6-8.6,7.7-7.9c4.1,0.6,7.2,8.3,8.5,12
	c0.3,3.2,6.9,13.5,8,15.9C527.2,37.9,536,10,537,10.2c1.8-2.3,3.2-8.8,8-8.6c1.9,0,3.6,1.2,3.6,3.2c0,2.8,0,10.6-0.2,13
	c0,6.9,1.9,13.1,1.7,20.9c0.1,6-0.7,16.7,1.3,21.1c1,2.2,3.3,9-1.9,8.7c-9.2,0-10.1,1.7-16.1,0.9c-1.3-0.3-1.9-1.2-1.8-2.5
	c0-3.1,5.3-3,7.5-4.4c4.4-5.6,1.5-13.1,1.4-21.7c-1.4-6.6,0.8-14.2-4-14.7c-5,2.3-3.4,4.6-7.2,10.3c-4,5.4-1.9,11.6-8.1,13
	c-2.9,0-5-2.5-6.3-7.4c-3.2-10.3-15.5-18.5-12.3,0.9c1.5,6.4-3.5,10.4,1.7,16.2c0.7,2,8.2,7.6,4,9.4c-2.8,1-2.8,1-4.6,1
	C499,69.6,492.7,70.2,488.5,68.7z M625,43.5c2.2,35-47.9,36.6-48,1.4C577.4,11.5,624.3,11.2,625,43.5z M587.4,43.9
	c-0.9,9.1,2.2,18.7,11.5,21c19.1,4.4,17.3-26.2,12.1-36.2C597.3,18.2,586.1,26.6,587.4,43.9z M652.1,54.5
	c-0.2-6.7,2.8-21.9-0.7-27.9c-0.9-1.2-6.5-0.2-7.9-1.5c-3.6-2.8,0.3-4.8,2.8-4.5c4.9-0.1,7.5-3.4,10.7-7c1.9-1.6,1.7-7.2,2-9.8
	c0.3-1.7,1.7-2.7,3.6-2.7c2.8,2.5,0.6,9.4,1.3,13c-0.2,8.6,13.1,3.6,15.3,8.3c0,3.7-8.8,1.3-13.1,3.6c-2.5,0.4-2.3,4.8-2.4,6.4
	c0.2,15.9,0.3,23.8,0.3,23.9c-0.3,10.2,11.7,10.3,14.8,1.8c0.8-1.2,1.5-8.4,3.8-7.2c5.6,3.1-1.5,12.6-3.8,16
	C669.4,78.5,650.1,69.2,652.1,54.5z M709.1,55.5l-0.2-24.6c-0.1-2.1-0.9-3.2-2.4-3.5c-2.2-1-7.8-0.1-7.9-3.8
	c-0.4-4.6,5.7-2.9,8.8-3.6C714,19,715.2,8.9,716,3.1c0.2-0.7,0.6-1.1,1.1-1.1c4.8-0.2,3.4,6.5,3.7,9.6c-0.4,11.8,8.4,6.5,13.5,9.2
	c6.3,5-10,4.6-10.3,5.4c-6.3,2-2.4,25.9-3.1,28.8c0,4.7,3.9,12.3,9.2,8.2c4.2-3.1,6.4-6.5,6.5-10.2c0.1-4.4,4.3-3.5,4.7-0.2
	C741.8,74.2,709.8,80.6,709.1,55.5z M833,69.5l-22.2-0.1c-4.3,0.2-7.2-2.3-4.5-4.8c2.5-2.6,8.5-0.4,8.9-5.1c0,0,0-46,0-46
	c0-0.8-0.1-1.9-0.2-3.4c0-3.8-6.2-4.5-7.1-6.6c-2.8-4.9,9.8-1.6,11.5-2.2c2.9,0,7.2-0.3,12.9-0.8c2.6,0.2,18.1-0.9,22,3.8
	c3.4,5.7,8.1,9,8.4,14.5c-0.4,10.4-8.1,15.7-15.8,18.6c-4.3,2.2-14.9,0-17.5,4.4c-2.3,3.6-4.1,19,2.3,21.1
	C836.1,63.6,838,69,833,69.5z M828.4,21.3c0,3.5-1.1,8.2,0.8,10.1c0.5,0.6,4.6,1.1,6.7,1.1c4.6,1.9,8.8-1.3,11.6-5.1
	c9.4-12.7-7.6-27.3-19.4-19.6c-1.6,3.2,0.9,6.1,0.3,10.5C828.4,18.3,828.4,21.3,828.4,21.3z M927.3,43.5c2.2,35-47.9,36.6-48,1.4
	C879.7,11.5,926.6,11.2,927.3,43.5z M889.7,43.9c-0.9,9.1,2.2,18.7,11.5,21c19.1,4.4,17.3-26.2,12.1-36.2
	C899.5,18.2,888.4,26.6,889.7,43.9z M974,19.1c10.7-1.3,27.2,11.7,22.7,24.4c-0.7,1.1-3.3,1.5-5.3,1.4c-4.8-0.2-20.1,2.2-24.8,2.2
	c-10.1,1.9-2.1,18.8,10.6,17.3c4.5,0,8.1-1.7,10.7-5c1.3-1.9,8.5-9.8,7.8-1.8c-7.2,15.7-25.6,17-37.1,7.1
	c-10.7-8.2-11.4-24.8-5.1-35.5C959,21.4,962.8,20.7,974,19.1z M975.3,40c16.2,1.9,11.5-15.2-1.1-15.2
	C962.8,26.1,959.4,41.8,975.3,40z M1025.2,55.5l-0.2-24.6c-0.1-2.1-0.9-3.2-2.4-3.5c-2.2-1-7.8-0.1-7.9-3.8
	c-0.4-4.6,5.7-2.9,8.8-3.6c6.6-1.1,7.8-11.1,8.6-16.9c0.2-0.7,0.6-1.1,1.1-1.1c4.8-0.2,3.4,6.5,3.7,9.6c-0.4,11.8,8.4,6.5,13.5,9.2
	c6.3,5-10,4.6-10.3,5.4c-6.3,2-2.4,25.9-3.1,28.8c0,4.7,3.9,12.3,9.2,8.2c4.2-3.1,6.4-6.5,6.5-10.2c0.1-4.4,4.3-3.5,4.7-0.2
	C1057.9,74.2,1025.9,80.6,1025.2,55.5z M1098.9,70c-2-0.5-35.2,3-24.7-3.9c2.9-1,5.8-1,8.3-3.4c4.3-2.5,1.7-30.4,0.5-34.4
	c-0.8-5.8-9.8-0.2-10.9-5.1c-0.2-5.4,15.2-2,16-2.8c5.5-0.9,4.8,7.1,8.8,7.2c2.6-0.2,6-4.1,8.2-5.3c6.4-5.1,19.9-5.7,20.5,4.5
	c0.3,4.6-5.8,7.5-9,4.1c-1.9-1.6-3.5-6.9-6.8-5.2c-13.2,6-19.6,22.4-13,35.1c1.1,3.3,5,3.5,8,4c1.8,0.4,3.1,2.5,1.3,4
	C1103.8,70.7,1102.3,69.8,1098.9,70z M1143.8,20.2c0,0,15.3,0.3,15.3,0.3c1.5,0,3.8-0.8,4.6,1c0.5,1.2-1.7,2.6-2.3,3.3
	c-4,6.2,2.9,15.1,6.6,20.5c7.4,8.7,9.3-5.5,14.9-14.9c1.8-3.2-1.7-4.6-4.3-5.5c-2.4-1.1-2.3-4.7,0.8-4.5c3.9,0.1,12.7-0.9,19.4,0.4
	c2.9,1.1-2.1,3.8-3.4,3.9c-3.7,0.7-6.4,3-7.9,6.9c-2,3.2-2.9,6.8-4.7,10.3c-4.7,9.6-14.9,28.1-16.8,34.9
	c-1.9,4.7-8.1,13.6-15.3,12.5c-4.8,0.2-11.9-3.6-11.2-9.2c1.7-5.2,10.2-7.8,12.4-1.7c4.2,9,9.4-4.5,12.5-10
	c0.8-4.4-1.6-5.7-4.1-11.8c-3.6-7.7-7.2-13.3-9.8-20c-2.5-6.5-5.6-10.3-9.3-11.6c-1.9-0.4-4.4-2.5-3-4.2
	C1139.4,20,1142.4,20.6,1143.8,20.2z"/>
</svg>
