<?xml version="1.0" encoding="utf-8"?>
<!-- Generator: Adobe Illustrator 28.3.0, SVG Export Plug-In . SVG Version: 6.00 Build 0)  -->
<svg version="1.1" id="Layer_1" xmlns="http://www.w3.org/2000/svg" xmlns:xlink="http://www.w3.org/1999/xlink" x="0px" y="0px"
	 viewBox="0 0 35.3 60" style="enable-background:new 0 0 35.3 60;" xml:space="preserve">
<path d="M1.7,18.4l15-15V59c0,0.6,0.4,1,1,1c0.6,0,1-0.4,1-1V3.4l15,15c0.2,0.2,0.5,0.3,0.7,0.3s0.5-0.1,0.7-0.3
	c0.4-0.4,0.4-1,0-1.4L18.4,0.3c-0.1-0.1-0.2-0.2-0.3-0.2c-0.2-0.1-0.5-0.1-0.8,0c-0.1,0.1-0.2,0.1-0.3,0.2L0.3,17
	c-0.4,0.4-0.4,1,0,1.4S1.3,18.8,1.7,18.4L1.7,18.4z"/>
</svg>
