<?xml version="1.0" encoding="utf-8"?>
<!-- Generator: Adobe Illustrator 28.3.0, SVG Export Plug-In . SVG Version: 6.00 Build 0)  -->
<svg version="1.1" id="Layer_1" xmlns="http://www.w3.org/2000/svg" xmlns:xlink="http://www.w3.org/1999/xlink" x="0px" y="0px"
	 viewBox="0 0 18 20" style="enable-background:new 0 0 18 20;" xml:space="preserve">
<path d="M2,20h14c1.1,0,2-0.9,2-2V9c0-0.3-0.1-0.5-0.3-0.7l-8-8c-0.4-0.4-1-0.4-1.4,0l-8,8C0.1,8.5,0,8.7,0,9v9C0,19.1,0.9,20,2,20z
	 M7,18v-5h4v5H7z M2,9.4l7-7l7,7V18h-3v-5c0-1.1-0.9-2-2-2H7c-1.1,0-2,0.9-2,2v5H2V9.4z"/>
</svg>
