<?xml version="1.0" encoding="utf-8"?>
<!-- Generator: Adobe Illustrator 28.3.0, SVG Export Plug-In . SVG Version: 6.00 Build 0)  -->
<svg version="1.1" id="Layer_1" xmlns="http://www.w3.org/2000/svg" xmlns:xlink="http://www.w3.org/1999/xlink" x="0px" y="0px"
	 viewBox="0 0 34.9 48" style="enable-background:new 0 0 34.9 48;" xml:space="preserve">
<g id="Layer_1_00000103237828398384951020000002476809791524172951_">
</g>
<g id="icon">
	<path d="M30.7,15.3h-0.2V13c0-3.5-1.4-6.8-3.8-9.2C24.2,1.4,20.9,0,17.4,0c-7.2,0-13,5.9-13,13v2.3H4.1c-2.3,0-4.1,1.9-4.1,4.1
		v24.4C0,46.1,1.9,48,4.1,48h26.6c2.3,0,4.1-1.9,4.1-4.1V19.5C34.9,17.2,33,15.3,30.7,15.3z M6.4,13c0-6.1,5-11,11-11
		c3,0,5.7,1.1,7.8,3.2c2.1,2.1,3.2,4.9,3.2,7.8v2.3H6.4V13z M32.9,43.8c0,1.2-1,2.1-2.1,2.1H4.1C3,46,2,45,2,43.8V19.5
		c0-1.2,1-2.1,2.1-2.1h0.2h26.1h0.2c1.2,0,2.1,1,2.1,2.1L32.9,43.8L32.9,43.8z"/>
	<path d="M20.4,28.7c0-1.9-1.8-3.4-3.8-2.9c-1,0.3-1.9,1.1-2.1,2.1c-0.3,1.2,0.1,2.3,0.9,3c0.3,0.3,0.5,0.7,0.5,1.1v4.2
		c0,0.8,0.7,1.5,1.5,1.5s1.5-0.7,1.5-1.5V32c0-0.4,0.2-0.8,0.5-1.1C20,30.4,20.4,29.6,20.4,28.7z"/>
</g>
</svg>
