<svg xmlns="http://www.w3.org/2000/svg" width="75" height="75" viewBox="0 0 75 75">
<g>
<path d="M 29.72,68.97 C21.12,66.81 12.45,59.78 8.25,51.54 C4.54,44.28 4.02,33.58 6.99,25.70 C13.22,9.19 31.92,0.88 48.71,7.16 C56.41,10.05 64.00,17.74 67.01,25.70 C69.98,33.58 69.46,44.28 65.75,51.54 C62.67,57.57 55.49,64.45 49.52,67.09 C44.33,69.39 34.94,70.28 29.72,68.97 M 47.26,65.01 C67.10,57.58 72.79,30.98 57.69,16.20 C40.07,-1.05 11.58,8.88 7.53,33.68 C6.61,39.34 9.20,49.06 13.08,54.46 C21.00,65.49 34.67,69.71 47.26,65.01 M 35.32,51.86 C33.99,43.45 27.68,30.00 25.06,30.00 C21.29,30.00 19.51,24.48 22.49,22.01 C26.00,19.10 31.84,24.08 28.97,27.54 C28.02,28.69 28.37,29.93 30.72,33.74 C32.34,36.36 34.16,39.62 34.76,41.00 C35.82,43.40 35.87,43.34 35.93,39.75 C35.97,37.69 36.45,36.00 37.00,36.00 C37.55,36.00 38.03,37.69 38.07,39.75 C38.13,43.34 38.18,43.40 39.24,41.00 C39.84,39.62 41.66,36.36 43.28,33.74 C45.63,29.93 45.98,28.69 45.03,27.54 C42.16,24.08 48.00,19.10 51.51,22.01 C54.49,24.49 52.71,30.00 48.92,30.00 C46.17,30.00 40.14,42.70 38.75,51.44 C38.09,55.60 37.30,59.00 37.00,59.00 C36.69,59.00 35.94,55.78 35.32,51.86 M 34.04,32.07 C32.24,28.71 34.98,25.29 38.42,26.61 C41.89,27.94 40.73,34.00 37.00,34.00 C35.94,34.00 34.61,33.13 34.04,32.07 M 33.67,22.94 C30.92,19.01 34.18,14.97 38.89,16.47 C42.93,17.75 41.33,25.00 37.00,25.00 C35.96,25.00 34.46,24.07 33.67,22.94 Z" fill="rgba(0,0,0,1)"/>
</g>
</svg>